<svg width="25" height="24" viewBox="0 0 25 24" fill="none" xmlns="http://www.w3.org/2000/svg">
<g clip-path="url(#clip0_1128_13767)">
<path d="M7.5 4V2H17.5V4H22.5V6H20.5V21C20.5 21.2652 20.3946 21.5196 20.2071 21.7071C20.0196 21.8946 19.7652 22 19.5 22H5.5C5.23478 22 4.98043 21.8946 4.79289 21.7071C4.60536 21.5196 4.5 21.2652 4.5 21V6H2.5V4H7.5ZM6.5 6V20H18.5V6H6.5ZM9.5 9H11.5V17H9.5V9ZM13.5 9H15.5V17H13.5V9Z" fill="#B7B7B7"/>
</g>
<defs>
<clipPath id="clip0_1128_13767">
<rect width="24" height="24" fill="white" transform="translate(0.5)"/>
</clipPath>
</defs>
</svg>
