<svg width="56" height="56" viewBox="0 0 56 56" fill="none" xmlns="http://www.w3.org/2000/svg">
<g clip-path="url(#clip0_795_14518)">
<path d="M30.427 1.6779C30.791 0.441229 32.0906 -0.265771 33.3226 0.0935618C37.623 1.35356 40.5886 4.31456 41.9023 8.65923C42.2756 9.89356 41.5756 11.1956 40.3436 11.5689C40.1196 11.6366 39.891 11.6692 39.667 11.6692C38.666 11.6692 37.7396 11.0182 37.434 10.0102C36.5636 7.13089 34.8416 5.40423 32.0136 4.5759C30.777 4.21423 30.0676 2.9169 30.4293 1.68023L30.427 1.6779ZM56.0003 18.6296V33.0262C56.0003 38.5819 53.7393 44.0116 49.7983 47.9269L47.8966 49.8169C43.881 53.8046 38.3206 56.0002 32.6693 56.0002C26.9433 55.9512 21.6443 53.6529 17.652 49.5462L1.96497 33.4042C-0.284365 31.1526 -0.646032 27.5569 1.1483 25.0602C1.70364 24.2902 2.41063 23.6626 3.2133 23.2099L2.41063 22.4072C0.135635 20.1322 -0.226032 16.5342 1.57297 14.0399C2.3943 12.8989 3.54697 12.0776 4.8513 11.6646C4.55497 10.0079 4.86297 8.27889 5.86397 6.88823C6.96997 5.35289 8.67564 4.38456 10.5446 4.23523C12.2036 4.1069 13.8066 4.64823 15.076 5.68656C15.195 5.46723 15.307 5.24323 15.454 5.03789C16.56 3.50256 18.2656 2.53656 20.1323 2.3849C22.02 2.23556 23.833 2.90756 25.1583 4.2329L42.0003 21.0749V18.8839C42.0003 15.3442 44.511 12.2689 47.843 11.7276C49.894 11.3986 51.9683 11.9679 53.534 13.3002C55.102 14.6326 56.0003 16.5762 56.0003 18.6342V18.6296ZM51.3336 18.6296C51.3336 17.9436 51.035 17.2949 50.51 16.8516C49.978 16.4012 49.2943 16.2192 48.5896 16.3289C47.5116 16.5039 46.6646 17.6239 46.6646 18.8792V26.7052C46.6646 27.6479 46.0953 28.4996 45.225 28.8612C44.35 29.2206 43.349 29.0222 42.6816 28.3549L21.859 7.5299C21.502 7.1729 21.0096 7.00023 20.508 7.03523C20.214 7.05856 19.6563 7.18456 19.241 7.76323C18.7743 8.41189 18.9283 9.44089 19.591 10.1036L31.3766 21.8892C32.289 22.8016 32.289 24.2762 31.3766 25.1886C30.9216 25.6436 30.3243 25.8722 29.727 25.8722C29.1296 25.8722 28.5323 25.6436 28.0773 25.1886L12.269 9.38256C11.9143 9.02789 11.4313 8.84823 10.918 8.8879C10.624 8.91123 10.0663 9.03723 9.65097 9.61589C9.1843 10.2646 9.3383 11.2912 10.001 11.9562L25.6576 27.6129C26.57 28.5252 26.57 29.9999 25.6576 30.9122C25.2026 31.3672 24.6053 31.5959 24.008 31.5959C23.4106 31.5959 22.8133 31.3672 22.3583 30.9122L7.97797 16.5319C7.6233 16.1772 7.10997 15.9952 6.6293 16.0372C6.3353 16.0606 5.77764 16.1866 5.35997 16.7676C4.8933 17.4162 5.0473 18.4429 5.70997 19.1079L19.9363 33.3342C20.8486 34.2466 20.8486 35.7212 19.9363 36.6336C19.024 37.5459 17.5493 37.5459 16.637 36.6336L7.55797 27.5546C7.2033 27.1999 6.70864 27.0226 6.20697 27.0599C5.91297 27.0832 5.3553 27.2092 4.93764 27.7879C4.47097 28.4366 4.62497 29.4656 5.28997 30.1282L20.998 46.2959C24.113 49.5019 28.2896 51.2892 32.7603 51.3289C37.1586 51.3359 41.4356 49.6559 44.609 46.5082L46.5106 44.6182C49.5766 41.5732 51.3336 37.3499 51.3336 33.0286V18.6296ZM9.9893 49.0936C7.1613 48.2652 5.43697 46.5386 4.56897 43.6592C4.19564 42.4249 2.89364 41.7342 1.6593 42.1006C0.424968 42.4739 -0.272698 43.7759 0.100635 45.0102C1.41197 49.3549 4.37997 52.3159 8.6803 53.5759C8.89964 53.6389 9.11897 53.6716 9.33597 53.6716C10.3463 53.6716 11.2773 53.0112 11.5736 51.9916C11.9353 50.7549 11.226 49.4576 9.9893 49.0936Z" fill="#06C755"/>
</g>
<defs>
<clipPath id="clip0_795_14518">
<rect width="56" height="56" fill="white"/>
</clipPath>
</defs>
</svg>
