<svg width="214" height="154" viewBox="0 0 214 154" fill="none" xmlns="http://www.w3.org/2000/svg">
<g clip-path="url(#clip0_795_14523)">
<path d="M109.427 1.6779C109.791 0.441229 111.091 -0.265771 112.323 0.0935618C116.623 1.35356 119.589 4.31456 120.902 8.65923C121.276 9.89356 120.576 11.1956 119.344 11.5689C119.12 11.6366 118.891 11.6692 118.667 11.6692C117.666 11.6692 116.74 11.0182 116.434 10.0102C115.564 7.13089 113.842 5.40423 111.014 4.5759C109.777 4.21423 109.068 2.9169 109.429 1.68023L109.427 1.6779ZM135 18.6296V33.0262C135 38.5819 132.739 44.0116 128.798 47.9269L126.897 49.8169C122.881 53.8046 117.321 56.0002 111.669 56.0002C105.943 55.9512 100.644 53.6529 96.652 49.5462L80.965 33.4042C78.7156 31.1526 78.354 27.5569 80.1483 25.0602C80.7036 24.2902 81.4106 23.6626 82.2133 23.2099L81.4106 22.4072C79.1356 20.1322 78.774 16.5342 80.573 14.0399C81.3943 12.8989 82.547 12.0776 83.8513 11.6646C83.555 10.0079 83.863 8.27889 84.864 6.88823C85.97 5.35289 87.6756 4.38456 89.5446 4.23523C91.2036 4.1069 92.8066 4.64823 94.076 5.68656C94.195 5.46723 94.307 5.24323 94.454 5.03789C95.56 3.50256 97.2656 2.53656 99.1323 2.3849C101.02 2.23556 102.833 2.90756 104.158 4.2329L121 21.0749V18.8839C121 15.3442 123.511 12.2689 126.843 11.7276C128.894 11.3986 130.968 11.9679 132.534 13.3002C134.102 14.6326 135 16.5762 135 18.6342V18.6296ZM130.334 18.6296C130.334 17.9436 130.035 17.2949 129.51 16.8516C128.978 16.4012 128.294 16.2192 127.59 16.3289C126.512 16.5039 125.665 17.6239 125.665 18.8792V26.7052C125.665 27.6479 125.095 28.4996 124.225 28.8612C123.35 29.2206 122.349 29.0222 121.682 28.3549L100.859 7.52989C100.502 7.17289 100.01 7.00023 99.508 7.03523C99.214 7.05856 98.6563 7.18456 98.241 7.76323C97.7743 8.41189 97.9283 9.44089 98.591 10.1036L110.377 21.8892C111.289 22.8016 111.289 24.2762 110.377 25.1886C109.922 25.6436 109.324 25.8722 108.727 25.8722C108.13 25.8722 107.532 25.6436 107.077 25.1886L91.269 9.38256C90.9143 9.02789 90.4313 8.84823 89.918 8.88789C89.624 8.91123 89.0663 9.03723 88.651 9.61589C88.1843 10.2646 88.3383 11.2912 89.001 11.9562L104.658 27.6129C105.57 28.5252 105.57 29.9999 104.658 30.9122C104.203 31.3672 103.605 31.5959 103.008 31.5959C102.411 31.5959 101.813 31.3672 101.358 30.9122L86.978 16.5319C86.6233 16.1772 86.11 15.9952 85.6293 16.0372C85.3353 16.0606 84.7776 16.1866 84.36 16.7676C83.8933 17.4162 84.0473 18.4429 84.71 19.1079L98.9363 33.3342C99.8486 34.2466 99.8486 35.7212 98.9363 36.6336C98.024 37.5459 96.5493 37.5459 95.637 36.6336L86.558 27.5546C86.2033 27.1999 85.7086 27.0226 85.207 27.0599C84.913 27.0832 84.3553 27.2092 83.9376 27.7879C83.471 28.4366 83.625 29.4656 84.29 30.1282L99.998 46.2959C103.113 49.5019 107.29 51.2892 111.76 51.3289C116.159 51.3359 120.436 49.6559 123.609 46.5082L125.511 44.6182C128.577 41.5732 130.334 37.3499 130.334 33.0286V18.6296ZM88.9893 49.0936C86.1613 48.2652 84.437 46.5386 83.569 43.6592C83.1956 42.4249 81.8936 41.7342 80.6593 42.1006C79.425 42.4739 78.7273 43.7759 79.1006 45.0102C80.412 49.3549 83.38 52.3159 87.6803 53.5759C87.8996 53.6389 88.119 53.6716 88.336 53.6716C89.3463 53.6716 90.2773 53.0112 90.5736 51.9916C90.9353 50.7549 90.226 49.4576 88.9893 49.0936Z" fill="#B7B7B7"/>
</g>
<path d="M60.0078 94.6582L56.9902 105H54.9199L51.1211 90.9082H53.3965L55.9844 101.699H56.1211L59.0605 90.9082H61.0918L64.0508 101.699H64.1875L66.7656 90.9082H69.041L65.2324 105H63.1719L60.1445 94.6582H60.0078ZM74.7539 95.9473C73.2012 95.9473 72.1172 97.041 72 98.7012H77.3711C77.3223 97.0312 76.3066 95.9473 74.7539 95.9473ZM77.3613 102.129H79.3828C78.9043 104.033 77.2051 105.205 74.7734 105.205C71.7266 105.205 69.8613 103.115 69.8613 99.7168C69.8613 96.3184 71.7656 94.1602 74.7637 94.1602C77.7227 94.1602 79.5098 96.1816 79.5098 99.5215V100.254H72V100.371C72.0684 102.236 73.1523 103.418 74.832 103.418C76.1016 103.418 76.9707 102.959 77.3613 102.129ZM82.127 105V90.2148H84.2266V105H82.127ZM96.3848 97.8418H94.3438C94.0996 96.8066 93.2402 96.0352 91.834 96.0352C90.0762 96.0352 89.002 97.3828 89.002 99.6484C89.002 101.953 90.0859 103.33 91.834 103.33C93.1621 103.33 94.0703 102.725 94.3438 101.582H96.3848C96.1113 103.721 94.4707 105.205 91.8438 105.205C88.748 105.205 86.8535 103.115 86.8535 99.6484C86.8535 96.2402 88.7383 94.1602 91.834 94.1602C94.5 94.1602 96.1113 95.7129 96.3848 97.8418ZM103.279 105.205C100.164 105.205 98.2598 103.125 98.2598 99.6777C98.2598 96.25 100.174 94.1602 103.279 94.1602C106.375 94.1602 108.289 96.25 108.289 99.6777C108.289 103.125 106.385 105.205 103.279 105.205ZM103.279 103.34C105.096 103.34 106.131 101.992 106.131 99.6777C106.131 97.373 105.096 96.0254 103.279 96.0254C101.453 96.0254 100.428 97.373 100.428 99.6777C100.428 102.002 101.453 103.34 103.279 103.34ZM110.818 105V94.3652H112.84V96.0742H112.996C113.465 94.873 114.539 94.1602 115.955 94.1602C117.41 94.1602 118.416 94.9121 118.885 96.0742H119.051C119.588 94.9121 120.809 94.1602 122.283 94.1602C124.432 94.1602 125.682 95.459 125.682 97.6758V105H123.582V98.2227C123.582 96.7871 122.898 96.084 121.521 96.084C120.164 96.084 119.275 97.0605 119.275 98.3105V105H117.215V98.0176C117.215 96.8164 116.414 96.084 115.164 96.084C113.885 96.084 112.918 97.1289 112.918 98.4961V105H110.818ZM132.996 95.9473C131.443 95.9473 130.359 97.041 130.242 98.7012H135.613C135.564 97.0312 134.549 95.9473 132.996 95.9473ZM135.604 102.129H137.625C137.146 104.033 135.447 105.205 133.016 105.205C129.969 105.205 128.104 103.115 128.104 99.7168C128.104 96.3184 130.008 94.1602 133.006 94.1602C135.965 94.1602 137.752 96.1816 137.752 99.5215V100.254H130.242V100.371C130.311 102.236 131.395 103.418 133.074 103.418C134.344 103.418 135.213 102.959 135.604 102.129ZM146.482 91.7188H148.582V94.4141H150.887V96.1816H148.582V101.65C148.582 102.764 149.041 103.252 150.086 103.252C150.408 103.252 150.594 103.232 150.887 103.203V104.951C150.545 105.01 150.154 105.059 149.744 105.059C147.41 105.059 146.482 104.238 146.482 102.188V96.1816H144.793V94.4141H146.482V91.7188ZM157.732 105.205C154.617 105.205 152.713 103.125 152.713 99.6777C152.713 96.25 154.627 94.1602 157.732 94.1602C160.828 94.1602 162.742 96.25 162.742 99.6777C162.742 103.125 160.838 105.205 157.732 105.205ZM157.732 103.34C159.549 103.34 160.584 101.992 160.584 99.6777C160.584 97.373 159.549 96.0254 157.732 96.0254C155.906 96.0254 154.881 97.373 154.881 99.6777C154.881 102.002 155.906 103.34 157.732 103.34Z" fill="#949494"/>
<path d="M17.5469 142.891V147H2.79688V124.453H7.51562V142.891H17.5469ZM21.4062 147V129.766H25.9531V147H21.4062ZM23.6875 127.359C22.0469 127.359 21 126.406 21 125.062C21 123.703 22.0469 122.766 23.6875 122.766C25.3125 122.766 26.375 123.703 26.375 125.062C26.375 126.406 25.3125 127.359 23.6875 127.359ZM30.5625 147V129.766H34.9688V132.531H35.25C36.0469 130.594 37.7969 129.391 40.3438 129.391C44.1719 129.391 46.2344 131.734 46.2344 135.859V147H41.6875V136.938C41.6875 134.562 40.6719 133.312 38.5156 133.312C36.4062 133.312 35.1094 134.797 35.1094 137.062V147H30.5625ZM58.1094 132.875C56 132.875 54.5156 134.344 54.3594 136.578H61.7031C61.6094 134.297 60.2344 132.875 58.1094 132.875ZM61.7969 142.094H66.0312C65.3438 145.344 62.375 147.375 58.1562 147.375C52.9062 147.375 49.8125 144.062 49.8125 138.469C49.8125 132.859 52.9688 129.391 58.0938 129.391C63.1719 129.391 66.1719 132.625 66.1719 138.094V139.484H54.3438V139.719C54.4062 142.281 55.9062 143.875 58.2812 143.875C60.0781 143.875 61.3125 143.234 61.7969 142.094ZM88.7344 147H78.6094V124.453H88.4688C92.8438 124.453 95.4531 126.594 95.4531 130.078C95.4531 132.469 93.6875 134.547 91.375 134.891V135.172C94.3594 135.391 96.5312 137.641 96.5312 140.547C96.5312 144.5 93.5469 147 88.7344 147ZM83.3281 128.062V133.797H86.875C89.4219 133.797 90.8125 132.75 90.8125 130.938C90.8125 129.141 89.5156 128.062 87.2656 128.062H83.3281ZM83.3281 143.391H87.5312C90.25 143.391 91.7188 142.25 91.7188 140.141C91.7188 138.078 90.2031 136.984 87.4219 136.984H83.3281V143.391ZM100.375 147V129.766H104.922V147H100.375ZM102.656 127.359C101.016 127.359 99.9688 126.406 99.9688 125.062C99.9688 123.703 101.016 122.766 102.656 122.766C104.281 122.766 105.344 123.703 105.344 125.062C105.344 126.406 104.281 127.359 102.656 127.359ZM109.531 147V129.766H113.938V132.516H114.219C114.672 130.797 116.453 129.484 118.641 129.484C119.266 129.484 120.031 129.562 120.422 129.703V133.844C120.062 133.703 119 133.562 118.266 133.562C115.781 133.562 114.078 135.031 114.078 137.453V147H109.531ZM125.484 125.672H130.031V129.938H133.609V133.516H130.031V141.266C130.031 142.766 130.719 143.453 132.266 143.453C132.859 143.453 133.172 143.438 133.609 143.391V146.859C133.047 146.969 132.203 147.062 131.328 147.062C127.141 147.062 125.484 145.703 125.484 142.344V133.516H122.797V129.938H125.484V125.672ZM137.562 147V123.188H142.031V132.594H142.312C143.109 130.625 144.984 129.438 147.516 129.438C151.219 129.438 153.422 131.766 153.422 135.906V147H148.875V136.984C148.875 134.594 147.766 133.359 145.703 133.359C143.422 133.359 142.109 134.875 142.109 137.109V147H137.562ZM164.016 147.266C159.672 147.266 157 143.859 157 138.359C157 132.875 159.688 129.484 164.016 129.484C166.344 129.484 168.266 130.609 169.156 132.516H169.422V123.188H173.969V147H169.562V144.297H169.281C168.359 146.156 166.406 147.266 164.016 147.266ZM165.562 133.297C163.141 133.297 161.672 135.219 161.672 138.375C161.672 141.562 163.125 143.469 165.562 143.469C168 143.469 169.469 141.547 169.469 138.391C169.469 135.25 167.984 133.297 165.562 133.297ZM184.906 143.844C187.016 143.844 188.609 142.5 188.609 140.75V139.484L185.125 139.703C183.172 139.844 182.219 140.547 182.219 141.781C182.219 143.062 183.328 143.844 184.906 143.844ZM183.406 147.266C180.094 147.266 177.766 145.234 177.766 142.078C177.766 138.953 180.156 137.141 184.438 136.891L188.609 136.641V135.234C188.609 133.797 187.578 132.984 185.703 132.984C184.062 132.984 182.969 133.547 182.594 134.578H178.406C178.703 131.391 181.625 129.391 185.953 129.391C190.516 129.391 193.094 131.547 193.094 135.234V147H188.688V144.75H188.406C187.516 146.328 185.641 147.266 183.406 147.266ZM199.234 153.266C199.062 153.266 197.688 153.25 197.5 153.219V149.562C197.656 149.594 198.344 149.594 198.531 149.594C200.234 149.594 201.203 149.047 201.578 147.734L201.734 147.109L195.688 129.766H200.703L204.328 142.828H204.609L208.234 129.766H213.047L207.109 147.266C205.641 151.703 203.531 153.266 199.234 153.266Z" fill="#06C755"/>
<defs>
<clipPath id="clip0_795_14523">
<rect width="56" height="56" fill="white" transform="translate(79)"/>
</clipPath>
</defs>
</svg>
