<svg width="34" height="34" viewBox="0 0 34 34" fill="none" xmlns="http://www.w3.org/2000/svg">
<path d="M17 0.5625L15.9844 2.04688C15.9844 2.04688 15.3105 2.98926 14.6562 4.11719C14.3291 4.68359 14.0215 5.27441 13.7578 5.875C13.4941 6.47559 13.25 7.02734 13.25 7.75C13.25 9.80566 14.9443 11.5 17 11.5C19.0557 11.5 20.75 9.80566 20.75 7.75C20.75 7.02734 20.5059 6.47559 20.2422 5.875C19.9785 5.27441 19.6709 4.68359 19.3438 4.11719C18.6895 2.98926 18.0156 2.04688 18.0156 2.04688L17 0.5625ZM17 11.5H13.25V16.5H5.75C2.98633 16.5 0.75 18.7363 0.75 21.5C0.75 22.7695 1.21875 23.9365 2 24.8203V34H32V24.8203C32.7812 23.9365 33.25 22.7695 33.25 21.5C33.25 18.7363 31.0137 16.5 28.25 16.5H20.75V11.5H17ZM17 5.09375C17.083 5.23047 17.0732 5.2207 17.1562 5.36719C17.4541 5.87988 17.7715 6.42676 17.9766 6.89062C18.1816 7.35449 18.25 7.78418 18.25 7.75C18.25 8.44336 17.6934 9 17 9C16.3066 9 15.75 8.44336 15.75 7.75C15.75 7.78418 15.8184 7.35449 16.0234 6.89062C16.2285 6.42676 16.5459 5.87988 16.8438 5.36719C16.9268 5.2207 16.917 5.23047 17 5.09375ZM15.75 14H18.25V16.5H15.75V14ZM5.75 19H28.25C29.7393 19 30.75 20.0107 30.75 21.5C30.75 22.9893 29.7393 24 28.25 24C26.7607 24 25.75 22.9893 25.75 21.5H23.25C23.25 22.9893 22.2393 24 20.75 24C19.2607 24 18.25 22.9893 18.25 21.5H15.75C15.75 22.9893 14.7393 24 13.25 24C11.7607 24 10.75 22.9893 10.75 21.5H8.25C8.25 22.9893 7.23926 24 5.75 24C4.26074 24 3.25 22.9893 3.25 21.5C3.25 20.0107 4.26074 19 5.75 19ZM9.5 24.8203C10.418 25.8555 11.7559 26.5 13.25 26.5C14.7441 26.5 16.082 25.8555 17 24.8203C17.918 25.8555 19.2559 26.5 20.75 26.5C22.2441 26.5 23.582 25.8555 24.5 24.8203C25.418 25.8555 26.7559 26.5 28.25 26.5C28.6846 26.5 29.0996 26.4072 29.5 26.3047V31.5H4.5V26.3047C4.90039 26.4072 5.31543 26.5 5.75 26.5C7.24414 26.5 8.58203 25.8555 9.5 24.8203Z" fill="#DFDFDF"/>
</svg>
