<svg width="40" height="40" viewBox="0 0 40 40" fill="none" xmlns="http://www.w3.org/2000/svg">
<path d="M11.25 5V9.04297L6.89453 6.42822L5.60547 8.57178L7.98584 10H3.75V33.75H11.25V31.25H6.25V12.5H16.2842C17.3254 11.725 18.605 11.25 20 11.25C20.44 11.25 20.8525 11.302 21.25 11.377V10H17.0142L19.3945 8.57178L18.1055 6.42822L13.75 9.04297V5H11.25ZM20 13.75C17.9438 13.75 16.25 15.4438 16.25 17.5C16.25 17.94 16.3431 18.355 16.4844 18.75H13.75V21.25V33.75H36.25V21.25V18.75H33.5156C33.6581 18.355 33.75 17.94 33.75 17.5C33.75 15.4438 32.0562 13.75 30 13.75C27.8125 13.75 26.3278 15.4094 25.3516 16.7969C25.2203 16.9819 25.1162 17.1649 25 17.3462C24.8825 17.1649 24.7797 16.9831 24.6484 16.7969C23.6709 15.4094 22.1875 13.75 20 13.75ZM20 16.25C20.7812 16.25 21.7969 17.0894 22.5781 18.2031C22.7681 18.4769 22.7394 18.4924 22.8906 18.7524H20C19.2925 18.7524 18.75 18.2099 18.75 17.5024C18.75 16.7949 19.2925 16.25 20 16.25ZM30 16.25C30.7075 16.25 31.25 16.7925 31.25 17.5C31.25 18.2075 30.7075 18.75 30 18.75H27.1094C27.2619 18.4913 27.2319 18.4756 27.4219 18.2031C28.2031 17.0894 29.2188 16.25 30 16.25ZM16.25 21.25H23.75V31.25H16.25V21.25ZM26.25 21.25H33.75V31.25H26.25V21.25Z" fill="#DFDFDF"/>
</svg>
