<svg width="18" height="18" viewBox="0 0 18 18" fill="none" xmlns="http://www.w3.org/2000/svg">
<path d="M6 0.75C4.7666 0.75 3.75 1.7666 3.75 3C3.75 3.26367 3.80566 3.5127 3.89062 3.75H0V8.25H0.75V18H17.25V8.25H18V3.75H14.1094C14.1943 3.5127 14.25 3.26367 14.25 3C14.25 1.7666 13.2334 0.75 12 0.75C10.6875 0.75 9.79688 1.74609 9.21094 2.57812C9.13184 2.68945 9.07031 2.79785 9 2.90625C8.92969 2.79785 8.86816 2.68945 8.78906 2.57812C8.20312 1.74609 7.3125 0.75 6 0.75ZM6 2.25C6.46875 2.25 7.07812 2.75391 7.54688 3.42188C7.66113 3.58594 7.64355 3.59473 7.73438 3.75H6C5.5752 3.75 5.25 3.4248 5.25 3C5.25 2.5752 5.5752 2.25 6 2.25ZM12 2.25C12.4248 2.25 12.75 2.5752 12.75 3C12.75 3.4248 12.4248 3.75 12 3.75H10.2656C10.3564 3.59473 10.3389 3.58594 10.4531 3.42188C10.9219 2.75391 11.5312 2.25 12 2.25ZM1.5 5.25H16.5V6.75H9.75V6H8.25V6.75H1.5V5.25ZM2.25 8.25H15.75V16.5H9.75V9H8.25V16.5H2.25V8.25Z" fill="#06C755"/>
</svg>
