<svg width="16" height="16" viewBox="0 0 16 16" fill="none" xmlns="http://www.w3.org/2000/svg">
<g clip-path="url(#clip0_410_5696)">
<path d="M12.0194 11.0779L14.8747 13.9326L13.9314 14.8759L11.0767 12.0206C10.0145 12.8721 8.69337 13.3352 7.33203 13.3333C4.02003 13.3333 1.33203 10.6453 1.33203 7.33325C1.33203 4.02125 4.02003 1.33325 7.33203 1.33325C10.644 1.33325 13.332 4.02125 13.332 7.33325C13.334 8.69459 12.8708 10.0157 12.0194 11.0779ZM10.682 10.5833C11.5281 9.71318 12.0006 8.54687 11.9987 7.33325C11.9987 4.75459 9.91003 2.66659 7.33203 2.66659C4.75336 2.66659 2.66536 4.75459 2.66536 7.33325C2.66536 9.91125 4.75336 11.9999 7.33203 11.9999C8.54565 12.0018 9.71196 11.5293 10.582 10.6833L10.682 10.5833Z" fill="#B7B7B7"/>
</g>
<defs>
<clipPath id="clip0_410_5696">
<rect width="16" height="16" fill="white"/>
</clipPath>
</defs>
</svg>
