<svg width="25" height="24" viewBox="0 0 25 24" fill="none" xmlns="http://www.w3.org/2000/svg">
<path d="M7.5 5.25C5.02441 5.25 3 7.27441 3 9.75C3 11.2383 3.73242 12.5625 4.85156 13.3828C2.87402 14.3643 1.5 16.3975 1.5 18.75H3C3 16.2568 5.00684 14.25 7.5 14.25C9.99316 14.25 12 16.2568 12 18.75H13.5C13.5 16.2568 15.5068 14.25 18 14.25C20.4932 14.25 22.5 16.2568 22.5 18.75H24C24 16.3975 22.626 14.3643 20.6484 13.3828C21.7676 12.5625 22.5 11.2383 22.5 9.75C22.5 7.27441 20.4756 5.25 18 5.25C15.5244 5.25 13.5 7.27441 13.5 9.75C13.5 11.2383 14.2324 12.5625 15.3516 13.3828C14.2588 13.9248 13.3418 14.7803 12.75 15.8438C12.1582 14.7803 11.2412 13.9248 10.1484 13.3828C11.2676 12.5625 12 11.2383 12 9.75C12 7.27441 9.97559 5.25 7.5 5.25ZM7.5 6.75C9.16699 6.75 10.5 8.08301 10.5 9.75C10.5 11.417 9.16699 12.75 7.5 12.75C5.83301 12.75 4.5 11.417 4.5 9.75C4.5 8.08301 5.83301 6.75 7.5 6.75ZM18 6.75C19.667 6.75 21 8.08301 21 9.75C21 11.417 19.667 12.75 18 12.75C16.333 12.75 15 11.417 15 9.75C15 8.08301 16.333 6.75 18 6.75Z" fill="#B7B7B7"/>
</svg>
