<svg width="25" height="24" viewBox="0 0 25 24" fill="none" xmlns="http://www.w3.org/2000/svg">
<path d="M7.25 3V5.42578L4.63672 3.85693L3.86328 5.14307L5.2915 6H2.75V20.25H7.25V18.75H4.25V7.5H10.2705C10.8953 7.035 11.663 6.75 12.5 6.75C12.764 6.75 13.0115 6.78117 13.25 6.82617V6H10.7085L12.1367 5.14307L11.3633 3.85693L8.75 5.42578V3H7.25ZM12.5 8.25C11.2662 8.25 10.25 9.26625 10.25 10.5C10.25 10.764 10.3059 11.013 10.3906 11.25H8.75V12.75V20.25H22.25V12.75V11.25H20.6094C20.6949 11.013 20.75 10.764 20.75 10.5C20.75 9.26625 19.7337 8.25 18.5 8.25C17.1875 8.25 16.2967 9.24563 15.7109 10.0781C15.6322 10.1891 15.5697 10.299 15.5 10.4077C15.4295 10.299 15.3678 10.1899 15.2891 10.0781C14.7026 9.24563 13.8125 8.25 12.5 8.25ZM12.5 9.75C12.9688 9.75 13.5781 10.2536 14.0469 10.9219C14.1609 11.0861 14.1436 11.0955 14.2344 11.2515H12.5C12.0755 11.2515 11.75 10.926 11.75 10.5015C11.75 10.077 12.0755 9.75 12.5 9.75ZM18.5 9.75C18.9245 9.75 19.25 10.0755 19.25 10.5C19.25 10.9245 18.9245 11.25 18.5 11.25H16.7656C16.8571 11.0948 16.8391 11.0854 16.9531 10.9219C17.4219 10.2536 18.0312 9.75 18.5 9.75ZM10.25 12.75H14.75V18.75H10.25V12.75ZM16.25 12.75H20.75V18.75H16.25V12.75Z" fill="#B7B7B7"/>
</svg>
