<svg width="25" height="24" viewBox="0 0 25 24" fill="none" xmlns="http://www.w3.org/2000/svg">
<g clip-path="url(#clip0_844_3038)">
<path d="M16.75 3C19.788 3 22.25 5.5 22.25 9C22.25 16 14.75 20 12.25 21.5C9.75 20 2.25 16 2.25 9C2.25 5.5 4.75 3 7.75 3C9.61 3 11.25 4 12.25 5C13.25 4 14.89 3 16.75 3ZM13.184 18.604C14.065 18.048 14.86 17.495 15.604 16.903C18.585 14.533 20.25 11.943 20.25 9C20.25 6.64 18.713 5 16.75 5C15.674 5 14.51 5.57 13.664 6.414L12.25 7.828L10.836 6.414C9.99 5.57 8.826 5 7.75 5C5.81 5 4.25 6.656 4.25 9C4.25 11.944 5.916 14.533 8.895 16.903C9.64 17.495 10.435 18.048 11.316 18.603C11.615 18.792 11.911 18.973 12.25 19.175C12.589 18.973 12.885 18.792 13.184 18.604Z" fill="#B7B7B7"/>
</g>
<defs>
<clipPath id="clip0_844_3038">
<rect width="24" height="24" fill="white" transform="translate(0.25)"/>
</clipPath>
</defs>
</svg>
