<svg width="24" height="24" viewBox="0 0 24 24" fill="none" xmlns="http://www.w3.org/2000/svg">
<g clip-path="url(#clip0_844_8500)">
<path d="M3.34128 17.0018C2.91855 16.2708 2.58995 15.4892 2.36328 14.6758C2.85659 14.4249 3.27088 14.0424 3.56031 13.5707C3.84975 13.0989 4.00305 12.5563 4.00325 12.0029C4.00346 11.4494 3.85057 10.9067 3.56148 10.4348C3.2724 9.96283 2.8584 9.58005 2.36528 9.32878C2.81732 7.69426 3.67801 6.20173 4.86628 4.99178C5.33037 5.2935 5.8689 5.46094 6.42226 5.47556C6.97562 5.49018 7.52223 5.35141 8.00161 5.07461C8.48099 4.79781 8.87443 4.39377 9.13841 3.90722C9.40238 3.42066 9.52659 2.87055 9.49728 2.31778C11.1394 1.8934 12.8625 1.89409 14.5043 2.31978C14.4752 2.87254 14.5997 3.42257 14.8639 3.90898C15.128 4.3954 15.5216 4.79925 16.0011 5.07584C16.4806 5.35242 17.0272 5.49096 17.5806 5.47613C18.1339 5.46129 18.6723 5.29366 19.1363 4.99178C19.7153 5.58178 20.2293 6.25278 20.6613 7.00178C21.0943 7.75078 21.4183 8.53178 21.6393 9.32778C21.146 9.57868 20.7317 9.96115 20.4423 10.4329C20.1528 10.9046 19.9995 11.4472 19.9993 12.0007C19.9991 12.5541 20.152 13.0968 20.4411 13.5688C20.7302 14.0407 21.1442 14.4235 21.6373 14.6748C21.1852 16.3093 20.3246 17.8018 19.1363 19.0118C18.6722 18.7101 18.1337 18.5426 17.5803 18.528C17.0269 18.5134 16.4803 18.6521 16.001 18.9289C15.5216 19.2057 15.1281 19.6098 14.8642 20.0963C14.6002 20.5829 14.476 21.133 14.5053 21.6858C12.8632 22.1102 11.1401 22.1095 9.49828 21.6838C9.52733 21.131 9.40288 20.581 9.1387 20.0946C8.87453 19.6081 8.48092 19.2043 8.00145 18.9277C7.52198 18.6511 6.97534 18.5126 6.42201 18.5274C5.86868 18.5423 5.33024 18.7099 4.86628 19.0118C4.27527 18.4087 3.76288 17.7334 3.34128 17.0018ZM9.00128 17.1978C10.0669 17.8124 10.8681 18.7988 11.2513 19.9678C11.7503 20.0148 12.2513 20.0158 12.7503 19.9688C13.1337 18.7996 13.9353 17.8132 15.0013 17.1988C16.0665 16.5825 17.3218 16.3813 18.5263 16.6338C18.8163 16.2258 19.0663 15.7908 19.2743 15.3358C18.4537 14.4192 18.0004 13.232 18.0013 12.0018C18.0013 10.7418 18.4713 9.56478 19.2743 8.66778C19.0648 8.21292 18.8137 7.77841 18.5243 7.36978C17.3206 7.62209 16.0661 7.42125 15.0013 6.80578C13.9357 6.19115 13.1344 5.20476 12.7513 4.03578C12.2523 3.98878 11.7513 3.98778 11.2523 4.03478C10.8689 5.20392 10.0673 6.19034 9.00128 6.80478C7.93606 7.42109 6.68076 7.6223 5.47628 7.36978C5.18685 7.77806 4.93641 8.21264 4.72828 8.66778C5.54885 9.58434 6.00216 10.7716 6.00128 12.0018C6.00128 13.2618 5.53128 14.4388 4.72828 15.3358C4.93775 15.7906 5.18882 16.2251 5.47828 16.6338C6.682 16.3815 7.93649 16.5823 9.00128 17.1978ZM12.0013 15.0018C11.2056 15.0018 10.4426 14.6857 9.87996 14.1231C9.31735 13.5605 9.00128 12.7974 9.00128 12.0018C9.00128 11.2061 9.31735 10.4431 9.87996 9.88046C10.4426 9.31785 11.2056 9.00178 12.0013 9.00178C12.7969 9.00178 13.56 9.31785 14.1226 9.88046C14.6852 10.4431 15.0013 11.2061 15.0013 12.0018C15.0013 12.7974 14.6852 13.5605 14.1226 14.1231C13.56 14.6857 12.7969 15.0018 12.0013 15.0018ZM12.0013 13.0018C12.2665 13.0018 12.5209 12.8964 12.7084 12.7089C12.8959 12.5213 13.0013 12.267 13.0013 12.0018C13.0013 11.7366 12.8959 11.4822 12.7084 11.2947C12.5209 11.1071 12.2665 11.0018 12.0013 11.0018C11.7361 11.0018 11.4817 11.1071 11.2942 11.2947C11.1066 11.4822 11.0013 11.7366 11.0013 12.0018C11.0013 12.267 11.1066 12.5213 11.2942 12.7089C11.4817 12.8964 11.7361 13.0018 12.0013 13.0018Z" fill="#B7B7B7"/>
</g>
<defs>
<clipPath id="clip0_844_8500">
<rect width="24" height="24" fill="white"/>
</clipPath>
</defs>
</svg>
