<svg width="33" height="32" viewBox="0 0 33 32" fill="none" xmlns="http://www.w3.org/2000/svg">
<g clip-path="url(#clip0_713_10855)">
<path d="M16.5013 9.33268C15.768 9.33268 15.168 9.93268 15.168 10.666V14.666H11.168C10.4346 14.666 9.83464 15.266 9.83464 15.9993C9.83464 16.7327 10.4346 17.3327 11.168 17.3327H15.168V21.3327C15.168 22.066 15.768 22.666 16.5013 22.666C17.2346 22.666 17.8346 22.066 17.8346 21.3327V17.3327H21.8346C22.568 17.3327 23.168 16.7327 23.168 15.9993C23.168 15.266 22.568 14.666 21.8346 14.666H17.8346V10.666C17.8346 9.93268 17.2346 9.33268 16.5013 9.33268ZM16.5013 2.66602C9.1413 2.66602 3.16797 8.63935 3.16797 15.9993C3.16797 23.3594 9.1413 29.3327 16.5013 29.3327C23.8613 29.3327 29.8346 23.3594 29.8346 15.9993C29.8346 8.63935 23.8613 2.66602 16.5013 2.66602ZM16.5013 26.666C10.6213 26.666 5.83464 21.8793 5.83464 15.9993C5.83464 10.1193 10.6213 5.33268 16.5013 5.33268C22.3813 5.33268 27.168 10.1193 27.168 15.9993C27.168 21.8793 22.3813 26.666 16.5013 26.666Z" fill="#C8C8C8"/>
</g>
<defs>
<clipPath id="clip0_713_10855">
<rect width="32" height="32" fill="white" transform="translate(0.5)"/>
</clipPath>
</defs>
</svg>
