<svg width="24" height="24" viewBox="0 0 24 24" fill="none" xmlns="http://www.w3.org/2000/svg">
<g clip-path="url(#clip0_925_15237)">
<path d="M23.9996 11.5005C23.999 10.8108 23.7948 10.1367 23.4124 9.5628C23.0301 8.98886 22.4867 8.54065 21.8506 8.27446C21.4445 5.95682 20.2343 3.85656 18.4327 2.34313C16.6311 0.829688 14.3535 0 12.0006 0C9.64762 0 7.37004 0.829688 5.56843 2.34313C3.76682 3.85656 2.55657 5.95682 2.15056 8.27446C1.42456 8.57989 0.822808 9.12127 0.442604 9.81106C0.0624 10.5008 -0.0740269 11.2987 0.0553837 12.0756C0.184794 12.8526 0.572477 13.5631 1.15574 14.0924C1.73901 14.6217 2.48375 14.9388 3.26956 14.9925C3.78605 16.0885 4.48651 17.088 5.34056 17.9475C4.08914 19.3139 3.29495 21.0365 3.06856 22.8755C3.05217 23.0058 3.06163 23.1381 3.09638 23.2648C3.13114 23.3915 3.19052 23.5101 3.27113 23.6138C3.35174 23.7175 3.45199 23.8044 3.56617 23.8693C3.68035 23.9343 3.80621 23.9761 3.93656 23.9925C3.97771 23.9975 4.01911 24.0001 4.06056 24.0005C4.30393 24.0002 4.53884 23.9112 4.72127 23.7501C4.90371 23.589 5.02114 23.3669 5.05156 23.1255C5.23286 21.6756 5.86817 20.3203 6.86656 19.2535C8.3557 20.3527 10.1491 20.963 11.9996 21.0005C13.8446 20.9627 15.6327 20.3549 17.1186 19.2605C18.1126 20.3255 18.7453 21.6769 18.9266 23.1225C18.9568 23.3641 19.0741 23.5864 19.2565 23.7477C19.439 23.909 19.674 23.9981 19.9176 23.9985C19.9593 23.9983 20.0011 23.9956 20.0426 23.9905C20.3056 23.9575 20.5448 23.8214 20.7076 23.6122C20.8704 23.4029 20.9434 23.1375 20.9106 22.8745C20.6858 21.0401 19.8955 19.3213 18.6496 17.9565C19.5083 17.0943 20.2126 16.0911 20.7316 14.9905C21.6173 14.9316 22.4476 14.5384 23.0544 13.8904C23.6611 13.2425 23.999 12.3882 23.9996 11.5005ZM20.2476 12.9735C20.0143 12.9307 19.7735 12.9729 19.5686 13.0923C19.3637 13.2117 19.2083 13.4005 19.1306 13.6245C18.2146 16.2225 15.1296 19.0005 11.9996 19.0005C8.86956 19.0005 5.78456 16.2205 4.86856 13.6225C4.7906 13.3986 4.63518 13.2099 4.43036 13.0905C4.22553 12.9712 3.98479 12.9289 3.75156 12.9715C3.66845 12.9878 3.58419 12.9975 3.49956 13.0005C3.12834 12.996 2.77196 12.8541 2.49934 12.6021C2.22672 12.3501 2.05722 12.006 2.02363 11.6363C1.99005 11.2666 2.09475 10.8975 2.3175 10.6005C2.54025 10.3036 2.86522 10.0997 3.22956 10.0285C3.44217 9.98992 3.63658 9.88354 3.78368 9.72527C3.93078 9.56699 4.02266 9.36532 4.04556 9.15046C4.17911 7.87177 4.62036 6.64445 5.33158 5.57344C6.0428 4.50243 7.00282 3.61961 8.12956 3.00046C7.96582 3.63656 7.95827 4.30281 8.10756 4.94246C8.31087 5.78835 8.78442 6.5449 9.45642 7.09742C10.1284 7.64995 10.9622 7.96831 11.8315 8.00427C12.7007 8.04022 13.558 7.7918 14.2733 7.29667C14.9887 6.80153 15.5231 6.08667 15.7956 5.26046C15.84 5.11369 15.8492 4.95852 15.8226 4.80751C15.7959 4.6565 15.7341 4.51388 15.6421 4.39121C15.55 4.26853 15.4305 4.16923 15.293 4.10135C15.1554 4.03347 15.0039 3.9989 14.8506 4.00046H14.6996C14.5156 4.00648 14.3384 4.07088 14.1935 4.18431C14.0486 4.29775 13.9436 4.45436 13.8936 4.63146C13.7773 4.98107 13.5668 5.29178 13.2851 5.52931C13.0035 5.76684 12.6617 5.92196 12.2975 5.97755C11.9333 6.03315 11.5608 5.98706 11.2211 5.84437C10.8815 5.70168 10.5878 5.46794 10.3725 5.16893C10.1573 4.86992 10.0288 4.51727 10.0013 4.14987C9.97377 3.78247 10.0483 3.41461 10.2166 3.08686C10.3849 2.75912 10.6404 2.48423 10.955 2.29253C11.2697 2.10082 11.6311 1.99975 11.9996 2.00046C13.9754 1.99573 15.8827 2.72436 17.3521 4.04525C18.8215 5.36613 19.7485 7.18529 19.9536 9.15046C19.9765 9.36532 20.0683 9.56699 20.2154 9.72527C20.3625 9.88354 20.5569 9.98992 20.7696 10.0285C21.1339 10.0997 21.4589 10.3036 21.6816 10.6005C21.9044 10.8975 22.0091 11.2666 21.9755 11.6363C21.9419 12.006 21.7724 12.3501 21.4998 12.6021C21.2271 12.8541 20.8708 12.996 20.4996 13.0005C20.415 12.9981 20.3307 12.9891 20.2476 12.9735Z" fill="#06C755"/>
<path d="M9.5 13C10.3284 13 11 12.3284 11 11.5C11 10.6716 10.3284 10 9.5 10C8.67157 10 8 10.6716 8 11.5C8 12.3284 8.67157 13 9.5 13Z" fill="#06C755"/>
<path d="M14.5 13C15.3284 13 16 12.3284 16 11.5C16 10.6716 15.3284 10 14.5 10C13.6716 10 13 10.6716 13 11.5C13 12.3284 13.6716 13 14.5 13Z" fill="#06C755"/>
</g>
<defs>
<clipPath id="clip0_925_15237">
<rect width="24" height="24" fill="white"/>
</clipPath>
</defs>
</svg>
