<svg width="24" height="24" viewBox="0 0 24 24" fill="none" xmlns="http://www.w3.org/2000/svg">
<g clip-path="url(#clip0_926_15242)">
<path d="M20 13.33V10H22V8C19.282 8 18.011 2.104 18 2.051V0H16V2H8V0H6V2.016C5.989 2.068 4.795 8 2 8V10H4V13.075C3.846 14.819 2.201 19 0 19V21H2V24H4V21H8V24H10V21H14V24H16V21H20V24H22V21H24V19C21.792 19 20.359 15.218 20 13.33ZM7.576 4H16.424C16.715 4.976 17.331 6.662 18.379 8H5.622C6.67 6.662 7.284 4.976 7.576 4ZM18 10V13H6V10H18ZM3.625 19C4.676 17.662 5.295 15.975 5.587 15H18.367C18.667 15.973 19.299 17.661 20.361 19H3.625Z" fill="#06C755"/>
</g>
<defs>
<clipPath id="clip0_926_15242">
<rect width="24" height="24" fill="white"/>
</clipPath>
</defs>
</svg>
