<svg width="24" height="24" viewBox="0 0 24 24" fill="none" xmlns="http://www.w3.org/2000/svg">
<path d="M20.44 16.8559L18.959 14.6349C19.2015 14.474 19.41 14.2669 19.5724 14.0254C19.7348 13.7838 19.848 13.5126 19.9055 13.2273C19.963 12.942 19.9636 12.6481 19.9074 12.3625C19.8513 12.0769 19.7393 11.8052 19.578 11.5629L17.487 8.42795C17.6701 8.26122 17.8242 8.06522 17.943 7.84795C18.1331 7.49908 18.2256 7.10542 18.2108 6.70841C18.196 6.3114 18.0745 5.92572 17.859 5.59195C17.834 5.55415 17.807 5.51776 17.778 5.48295L13.678 0.700948C13.453 0.478072 13.1858 0.302334 12.8921 0.184031C12.5983 0.0657271 12.2839 0.00723681 11.9673 0.0119865C11.6506 0.0167361 11.3381 0.0846303 11.048 0.211691C10.758 0.338752 10.4962 0.522425 10.278 0.751948L6.20598 5.47895C6.17639 5.51258 6.14932 5.54834 6.12498 5.58595C5.83752 6.02862 5.71782 6.5595 5.78751 7.08271C5.85719 7.60591 6.11167 8.08695 6.50498 8.43895L4.42198 11.5629C4.26067 11.8052 4.14871 12.0769 4.09252 12.3625C4.03632 12.6481 4.03699 12.942 4.09448 13.2273C4.15198 13.5126 4.26517 13.7838 4.42758 14.0254C4.58999 14.2669 4.79843 14.474 5.04098 14.6349L3.55998 16.8559C3.22768 17.3542 3.03684 17.9333 3.0078 18.5315C2.97876 19.1297 3.11261 19.7246 3.39509 20.2527C3.67756 20.7808 4.09807 21.2223 4.61176 21.5302C5.12546 21.8381 5.71308 22.0008 6.31198 22.0009H11V23.0009C11 23.2662 11.1053 23.5205 11.2929 23.7081C11.4804 23.8956 11.7348 24.0009 12 24.0009C12.2652 24.0009 12.5196 23.8956 12.7071 23.7081C12.8946 23.5205 13 23.2662 13 23.0009V22.0009H17.687C18.286 22.001 18.8737 21.8384 19.3876 21.5306C19.9014 21.2227 20.3221 20.7812 20.6046 20.2531C20.8872 19.725 21.0212 19.13 20.9922 18.5317C20.9632 17.9335 20.7723 17.3543 20.44 16.8559ZM18.84 19.3099C18.7297 19.5198 18.5638 19.6953 18.3604 19.8172C18.1571 19.9391 17.9241 20.0027 17.687 20.0009H6.31198C6.07517 20.0007 5.84285 19.9363 5.63978 19.8144C5.43671 19.6926 5.27049 19.518 5.15883 19.3091C5.04718 19.1003 4.99427 18.8651 5.00574 18.6285C5.01722 18.392 5.09264 18.163 5.22398 17.9659L7.49998 14.5559C7.60056 14.4052 7.65828 14.23 7.66698 14.049C7.67568 13.868 7.63504 13.688 7.54939 13.5283C7.46374 13.3686 7.3363 13.2352 7.18071 13.1423C7.02511 13.0494 6.8472 13.0006 6.66598 13.0009H6.26098C6.2226 13.0023 6.18464 12.9925 6.15166 12.9728C6.11867 12.9531 6.09205 12.9244 6.07498 12.8899C6.05571 12.8566 6.0465 12.8183 6.04845 12.7798C6.0504 12.7413 6.06343 12.7042 6.08598 12.6729L8.83098 8.55595C8.92997 8.40441 8.98598 8.22885 8.99302 8.04798C9.00007 7.86711 8.95789 7.68773 8.87098 7.52895C8.7833 7.36905 8.65423 7.23567 8.4973 7.14278C8.34037 7.04988 8.16135 7.0009 7.97898 7.00095C7.9407 7.00235 7.90282 6.99273 7.86985 6.97323C7.83688 6.95373 7.8102 6.92517 7.79298 6.89095C7.7775 6.86415 7.76845 6.83413 7.76655 6.80324C7.76464 6.77236 7.76992 6.74145 7.78198 6.71295L11.744 2.11295C11.7708 2.07871 11.8041 2.05016 11.8421 2.02897C11.8801 2.00778 11.9219 1.99437 11.9651 1.98953C12.0083 1.98469 12.052 1.98851 12.0937 2.00077C12.1354 2.01304 12.1743 2.03349 12.208 2.06095L16.2 6.71395C16.212 6.74245 16.2173 6.77336 16.2154 6.80424C16.2135 6.83513 16.2045 6.86515 16.189 6.89195C16.1714 6.92647 16.1442 6.95514 16.1107 6.97449C16.0771 6.99384 16.0387 7.00303 16 7.00095C15.8189 7.00092 15.6413 7.05004 15.486 7.14307C15.3307 7.2361 15.2035 7.36955 15.1181 7.52918C15.0327 7.68881 14.9922 7.86863 15.001 8.04946C15.0098 8.23029 15.0675 8.40535 15.168 8.55595L17.913 12.6729C17.9355 12.7042 17.9486 12.7413 17.9505 12.7798C17.9525 12.8183 17.9433 12.8566 17.924 12.8899C17.9069 12.9244 17.8803 12.9531 17.8473 12.9728C17.8143 12.9925 17.7764 13.0023 17.738 13.0009H17.333C17.1519 13.0009 16.9743 13.05 16.819 13.1431C16.6637 13.2361 16.5365 13.3696 16.4511 13.5292C16.3657 13.6888 16.3252 13.8686 16.334 14.0495C16.3428 14.2303 16.4005 14.4053 16.501 14.5559L18.775 17.9659C18.9087 18.1622 18.9856 18.3915 18.9973 18.6287C19.0089 18.8658 18.9538 19.1016 18.84 19.3099Z" fill="#06C755"/>
<path d="M9 18C9.55228 18 10 17.5523 10 17C10 16.4477 9.55228 16 9 16C8.44772 16 8 16.4477 8 17C8 17.5523 8.44772 18 9 18Z" fill="#06C755"/>
<path d="M14 18C14.5523 18 15 17.5523 15 17C15 16.4477 14.5523 16 14 16C13.4477 16 13 16.4477 13 17C13 17.5523 13.4477 18 14 18Z" fill="#06C755"/>
<path d="M11 14C11.5523 14 12 13.5523 12 13C12 12.4477 11.5523 12 11 12C10.4477 12 10 12.4477 10 13C10 13.5523 10.4477 14 11 14Z" fill="#06C755"/>
<path d="M13 11C13.5523 11 14 10.5523 14 10C14 9.44772 13.5523 9 13 9C12.4477 9 12 9.44772 12 10C12 10.5523 12.4477 11 13 11Z" fill="#06C755"/>
<path d="M11 8C11.5523 8 12 7.55228 12 7C12 6.44772 11.5523 6 11 6C10.4477 6 10 6.44772 10 7C10 7.55228 10.4477 8 11 8Z" fill="#06C755"/>
</svg>
