<svg width="24" height="24" viewBox="0 0 24 24" fill="none" xmlns="http://www.w3.org/2000/svg">
<g clip-path="url(#clip0_815_13190)">
<path d="M9.999 10.5C9.999 11.328 9.327 12 8.499 12C7.671 12 6.999 11.328 6.999 10.5C6.999 9.672 7.671 9 8.499 9C9.327 9 9.999 9.672 9.999 10.5ZM15.499 9C14.671 9 13.999 9.672 13.999 10.5C13.999 11.328 14.671 12 15.499 12C16.327 12 16.999 11.328 16.999 10.5C16.999 9.672 16.327 9 15.499 9ZM21.999 10V23C21.999 23.487 21.648 23.903 21.168 23.986C21.111 23.996 21.055 24 20.999 24C20.582 24 20.2 23.738 20.057 23.333C19.793 22.585 18.89 22 18 22C17.11 22 16.207 22.585 15.943 23.333C15.802 23.733 15.424 24 15 24C14.576 24 14.198 23.733 14.057 23.333C13.793 22.585 12.89 22 12 22C11.11 22 10.207 22.585 9.943 23.333C9.802 23.733 9.424 24 9 24C8.576 24 8.198 23.733 8.057 23.333C7.793 22.585 6.89 22 6 22C5.11 22 4.207 22.585 3.943 23.333C3.78 23.792 3.31 24.066 2.831 23.986C2.351 23.903 2 23.487 2 23V10C1.999 4.486 6.485 0 11.999 0C17.513 0 21.999 4.486 21.999 10ZM19.999 10C19.999 5.589 16.41 2 11.999 2C7.588 2 3.999 5.589 3.999 10V20.503C4.607 20.183 5.296 20 5.999 20C7.126 20 8.221 20.472 8.999 21.225C9.777 20.472 10.872 20 11.999 20C13.126 20 14.221 20.472 14.999 21.225C15.777 20.472 16.872 20 17.999 20C18.702 20 19.391 20.183 19.999 20.503V10Z" fill="#06C755"/>
</g>
<defs>
<clipPath id="clip0_815_13190">
<rect width="24" height="24" fill="white"/>
</clipPath>
</defs>
</svg>
