<svg width="24" height="24" viewBox="0 0 24 24" fill="none" xmlns="http://www.w3.org/2000/svg">
<g clip-path="url(#clip0_925_15222)">
<path d="M24.0002 11.1011C24.0088 10.3536 23.742 9.62911 23.2507 9.0657C22.7594 8.50229 22.0779 8.13937 21.3362 8.04609C21.6362 7.50109 22.0722 6.23309 21.9902 3.04609C21.9843 2.72517 21.9046 2.40991 21.7574 2.12468C21.6102 1.83945 21.3994 1.59188 21.1412 1.40109C20.8962 1.21861 20.6125 1.0947 20.3121 1.03888C20.0117 0.983063 19.7025 0.996819 19.4082 1.07909C17.9194 1.49627 16.5247 2.19598 15.3002 3.14009C14.8112 2.32822 14.2687 1.54983 13.6762 0.810094C13.4691 0.568282 13.2121 0.374163 12.9229 0.241069C12.6337 0.107976 12.3191 0.0390625 12.0007 0.0390625C11.6824 0.0390625 11.3678 0.107976 11.0785 0.241069C10.7893 0.374163 10.5323 0.568282 10.3252 0.810094C9.735 1.54841 9.19448 2.32512 8.70723 3.13509C7.47636 2.19374 6.07792 1.49469 4.58623 1.07509C4.29269 0.992896 3.98414 0.97955 3.6846 1.03609C3.38506 1.09264 3.1026 1.21754 2.85923 1.40109C2.60133 1.59141 2.39064 1.83847 2.24343 2.12318C2.09622 2.40789 2.01643 2.72264 2.01023 3.04309C1.92823 6.23109 2.36723 7.49809 2.66223 8.04309C1.92047 8.13708 1.23921 8.5007 0.748294 9.06465C0.257373 9.6286 -0.0088962 10.3535 0.000226901 11.1011C0.000226901 15.3911 6.38723 18.2861 9.47823 19.4361C9.01354 19.8535 8.612 20.3362 8.28623 20.8691C8.10031 21.1801 8.00114 21.5352 7.99903 21.8975C7.99692 22.2598 8.09195 22.616 8.27423 22.9291C8.46008 23.2542 8.72844 23.5246 9.05222 23.7128C9.376 23.901 9.74372 24.0005 10.1182 24.0011H13.8822C14.2571 24.0001 14.6251 23.9 14.9489 23.7111C15.2727 23.5221 15.5409 23.251 15.7262 22.9251C15.9085 22.6122 16.0036 22.2562 16.0016 21.8941C15.9997 21.532 15.9008 21.177 15.7152 20.8661C15.527 20.558 15.31 20.2683 15.0672 20.0011H16.0002C16.5307 20.0011 17.0394 20.2118 17.4144 20.5869C17.7895 20.962 18.0002 21.4707 18.0002 22.0011C18.0002 22.2663 18.1056 22.5207 18.2931 22.7082C18.4807 22.8957 18.735 23.0011 19.0002 23.0011C19.2654 23.0011 19.5198 22.8957 19.7073 22.7082C19.8949 22.5207 20.0002 22.2663 20.0002 22.0011C19.9977 21.1738 19.7381 20.3676 19.2575 19.6942C18.7768 19.0208 18.0988 18.5134 17.3172 18.2421C20.4152 16.7411 24.0002 14.3111 24.0002 11.1011ZM16.3722 4.88509C17.3995 3.98739 18.6223 3.34223 19.9432 3.00109C19.9432 3.00109 19.9892 3.02009 19.9912 3.09409C20.0542 5.52809 19.7772 6.81409 19.5212 7.17709C19.3747 7.39222 19.1855 7.57482 18.9652 7.7135C18.745 7.85218 18.4985 7.94395 18.2412 7.98309C17.9961 8.01771 17.7464 8.00111 17.508 7.93432C17.2697 7.86754 17.0477 7.75203 16.8562 7.59509C16.6414 7.45318 16.4577 7.26909 16.3162 7.054C16.1747 6.83891 16.0784 6.59731 16.0332 6.34387C15.9879 6.09043 15.9946 5.83043 16.0529 5.57966C16.1112 5.3289 16.2198 5.09259 16.3722 4.88509ZM11.8922 2.05309C11.9051 2.03666 11.9216 2.02338 11.9404 2.01425C11.9592 2.00511 11.9798 2.00037 12.0007 2.00037C12.0216 2.00037 12.0422 2.00511 12.061 2.01425C12.0798 2.02338 12.0963 2.03666 12.1092 2.05309C12.8713 2.96279 13.5188 3.9626 14.0372 5.03009C14.0578 5.06502 14.0809 5.09843 14.1062 5.13009C13.9934 5.62014 13.9802 6.12783 14.0672 6.62309C13.9013 7.02022 13.6245 7.36114 13.27 7.60509C12.9154 7.84903 12.4981 7.98566 12.0679 7.99863C11.6377 8.01161 11.2129 7.90038 10.8442 7.67825C10.4756 7.45612 10.1788 7.1325 9.98923 6.74609C9.96724 6.71417 9.94354 6.68345 9.91823 6.65409C10.0122 6.1609 10.006 5.65387 9.90023 5.16309C9.90548 5.15545 9.91016 5.14743 9.91423 5.13909C10.4332 4.02693 11.0984 2.98908 11.8922 2.05309ZM4.00923 3.09309C4.0088 3.07596 4.01196 3.05892 4.01851 3.04308C4.02505 3.02724 4.03483 3.01293 4.04723 3.00109C5.37693 3.34077 6.6094 3.98508 7.64723 4.88309C7.79499 5.09476 7.89877 5.33394 7.95241 5.58644C8.00605 5.83895 8.00846 6.09966 7.95951 6.35312C7.91055 6.60657 7.81122 6.84763 7.6674 7.062C7.52358 7.27636 7.33819 7.45968 7.12223 7.60109C6.93286 7.75719 6.7131 7.8722 6.47691 7.93882C6.24072 8.00545 5.99325 8.02223 5.75023 7.98809C5.49402 7.94931 5.24866 7.85773 5.0297 7.71916C4.81074 7.58059 4.62295 7.39804 4.47823 7.18309C4.22223 6.81509 3.94623 5.52809 4.00923 3.09309ZM13.8822 22.0011H10.1182C10.0562 22.0011 10.0182 21.9551 10.0062 21.8851C10.508 21.1262 11.1802 20.495 11.9692 20.0421C12.7889 20.4961 13.4828 21.147 13.9882 21.9361C13.9778 21.9553 13.9626 21.9714 13.944 21.9828C13.9254 21.9943 13.9041 22.0006 13.8822 22.0011ZM14.6762 17.2101C15.3092 16.2908 15.7547 15.2557 15.9872 14.1641C16.0305 13.9023 15.9679 13.6341 15.8134 13.4184C15.6589 13.2028 15.425 13.0573 15.1632 13.0141C14.9015 12.9709 14.6332 13.0334 14.4176 13.1879C14.2019 13.3425 14.0565 13.5763 14.0132 13.8381C13.6323 15.1869 12.9482 16.4309 12.0132 17.4751C11.0889 16.3965 10.3959 15.1395 9.97723 13.7821C9.94847 13.6539 9.89475 13.5327 9.81913 13.4253C9.74351 13.3179 9.64747 13.2264 9.53651 13.1561C9.42554 13.0858 9.30182 13.0381 9.1724 13.0156C9.04298 12.9931 8.9104 12.9963 8.78223 13.0251C8.65406 13.0539 8.53281 13.1076 8.4254 13.1832C8.31799 13.2588 8.22653 13.3548 8.15624 13.4658C8.08594 13.5768 8.03819 13.7005 8.01571 13.8299C7.99324 13.9593 7.99647 14.0919 8.02523 14.2201C8.30574 15.294 8.76517 16.3129 9.38423 17.2341C6.30023 15.9661 2.00023 13.6411 2.00023 11.1011C1.99575 10.957 2.02054 10.8134 2.0731 10.6791C2.12566 10.5448 2.2049 10.4226 2.30603 10.3197C2.40716 10.2169 2.52808 10.1357 2.66149 10.0809C2.7949 10.0262 2.93803 9.999 3.08223 10.0011H20.9182C21.0624 9.999 21.2056 10.0262 21.339 10.0809C21.4724 10.1357 21.5933 10.2169 21.6944 10.3197C21.7956 10.4226 21.8748 10.5448 21.9274 10.6791C21.9799 10.8134 22.0047 10.957 22.0002 11.1011C22.0002 13.6241 17.7552 15.9361 14.6762 17.2101Z" fill="#06C755"/>
</g>
<defs>
<clipPath id="clip0_925_15222">
<rect width="24" height="24" fill="white"/>
</clipPath>
</defs>
</svg>
