<svg width="24" height="24" viewBox="0 0 24 24" fill="none" xmlns="http://www.w3.org/2000/svg">
<path d="M16.9504 16.702C17.1234 15.817 16.8464 14.908 16.2094 14.271L9.73043 7.792C9.09343 7.154 8.18343 6.878 7.30043 7.051C6.41643 7.225 5.67943 7.823 5.32943 8.655L0.181432 20.881C-0.174568 21.726 0.014432 22.691 0.662432 23.339C1.09343 23.77 1.66443 23.998 2.24643 23.998C2.54043 23.998 2.83743 23.939 3.12143 23.82L15.3484 18.673C16.1794 18.323 16.7784 17.586 16.9514 16.702H16.9504ZM2.34443 21.976C2.24543 22.019 2.15443 22.001 2.07643 21.924C1.99843 21.847 1.98143 21.756 2.02443 21.655L5.49643 13.408L10.5924 18.503L2.34443 21.976ZM14.9884 16.317C14.9664 16.427 14.8834 16.698 14.5714 16.829L12.5824 17.666L6.33443 11.419L7.17243 9.429C7.30343 9.118 7.57443 9.034 7.68443 9.013C7.71743 9.006 7.76543 9 7.82243 9C7.95843 9 8.14843 9.037 8.31643 9.205L14.7954 15.684C15.0344 15.923 15.0094 16.206 14.9884 16.317ZM13.7254 0.377C14.0704 -0.052 14.6914 -0.123 15.1214 0.215C15.2044 0.281 17.1714 1.866 16.9994 4.564C16.9324 5.621 16.5274 6.643 15.7974 7.605C15.6014 7.864 15.3024 8.001 15.0004 8.001C14.7904 8.001 14.5774 7.935 14.3964 7.798C13.9564 7.464 13.8704 6.837 14.2044 6.397C14.6924 5.754 14.9604 5.095 15.0024 4.438C15.1064 2.807 13.9244 1.823 13.8744 1.782C13.4494 1.434 13.3804 0.806 13.7244 0.379L13.7254 0.377ZM23.5784 13.817C23.4034 13.94 23.2024 14 23.0034 14C22.6924 14 22.3874 13.856 22.1924 13.587C22.1624 13.548 21.7324 13 21.0024 13C20.6594 13 20.3554 13.098 20.0994 13.291C19.6584 13.625 19.0314 13.536 18.6984 13.096C18.3654 12.656 18.4534 12.028 18.8944 11.696C19.4974 11.241 20.2264 11.001 21.0024 11.001C22.4344 11.001 23.4464 11.896 23.8194 12.425C24.1374 12.876 24.0294 13.5 23.5784 13.819V13.817ZM21.0024 1.5C21.0024 0.672 21.6744 0 22.5024 0C23.3304 0 24.0024 0.672 24.0024 1.5C24.0024 2.328 23.3304 3 22.5024 3C21.6744 3 21.0024 2.328 21.0024 1.5ZM19.0024 6.5C19.0024 5.672 19.6744 5 20.5024 5C21.3304 5 22.0024 5.672 22.0024 6.5C22.0024 7.328 21.3304 8 20.5024 8C19.6744 8 19.0024 7.328 19.0024 6.5ZM8.00143 2.5C8.00143 1.672 8.67343 1 9.50143 1C10.3294 1 11.0014 1.672 11.0014 2.5C11.0014 3.328 10.3294 4 9.50143 4C8.67343 4 8.00143 3.328 8.00143 2.5ZM23.0014 18.5C23.0014 19.328 22.3294 20 21.5014 20C20.6734 20 20.0014 19.328 20.0014 18.5C20.0014 17.672 20.6734 17 21.5014 17C22.3294 17 23.0014 17.672 23.0014 18.5ZM1.00143 3.5C1.00143 2.672 1.67343 2 2.50143 2C3.32943 2 4.00143 2.672 4.00143 3.5C4.00143 4.328 3.32943 5 2.50143 5C1.67343 5 1.00143 4.328 1.00143 3.5ZM18.0014 22.5C18.0014 23.328 17.3294 24 16.5014 24C15.6734 24 15.0014 23.328 15.0014 22.5C15.0014 21.672 15.6734 21 16.5014 21C17.3294 21 18.0014 21.672 18.0014 22.5Z" fill="#06C755"/>
</svg>
