<svg width="24" height="24" viewBox="0 0 24 24" fill="none" xmlns="http://www.w3.org/2000/svg">
<g clip-path="url(#clip0_939_13694)">
<path d="M7 14C9.206 14 11 12.206 11 10C11 7.794 9.206 6 7 6C4.794 6 3 7.794 3 10C3 12.206 4.794 14 7 14ZM7 8C8.103 8 9 8.897 9 10C9 11.103 8.103 12 7 12C5.897 12 5 11.103 5 10C5 8.897 5.897 8 7 8ZM14 23C14 23.553 13.552 24 13 24C12.448 24 12 23.553 12 23C12 20.243 9.757 18 7 18C4.243 18 2 20.243 2 23C2 23.553 1.552 24 1 24C0.448 24 0 23.553 0 23C0 19.141 3.14 16 7 16C10.86 16 14 19.141 14 23ZM24 5V13C24 15.757 21.757 18 19 18H15C14.448 18 14 17.553 14 17V15C14 14.447 14.448 14 15 14H18C18.552 14 19 14.447 19 15V16C20.654 16 22 14.654 22 13V5C22 3.346 20.654 2 19 2H9.465C8.397 2 7.401 2.575 6.866 3.501C6.589 3.979 5.978 4.144 5.5 3.865C5.021 3.589 4.858 2.977 5.135 2.499C6.027 0.958 7.686 0 9.466 0H19.001C21.758 0 24 2.243 24 5Z" fill="#06C755"/>
</g>
<defs>
<clipPath id="clip0_939_13694">
<rect width="24" height="24" fill="white"/>
</clipPath>
</defs>
</svg>
