<svg width="24" height="24" viewBox="0 0 24 24" fill="none" xmlns="http://www.w3.org/2000/svg">
<path d="M22.9877 16.9877C22.7225 16.9877 22.4681 17.0931 22.2806 17.2806C22.0931 17.4681 21.9877 17.7225 21.9877 17.9877V20.5737L18.9937 17.5797C21.1877 15.2377 22.9877 12.5347 22.9877 9.97471C23.043 8.45762 22.4955 6.98033 21.4649 5.86563C20.4344 4.75093 19.0045 4.08945 17.4877 4.02571C16.5857 4.03746 15.701 4.27542 14.9148 4.7178C14.1286 5.16017 13.466 5.79281 12.9877 6.55771C12.5094 5.79281 11.8468 5.16017 11.0606 4.7178C10.2744 4.27542 9.38976 4.03746 8.48771 4.02571C7.63966 4.02818 6.80544 4.24086 6.05971 4.64471L1.69471 0.280712C1.50611 0.0985538 1.25351 -0.00224062 0.991311 3.78026e-05C0.729114 0.00231622 0.478301 0.107485 0.292893 0.292893C0.107485 0.478301 0.00231622 0.729114 3.78026e-05 0.991311C-0.00224062 1.25351 0.0985538 1.50611 0.280712 1.69471L4.48771 5.90271C3.51257 7.03448 2.97978 8.48081 2.98771 9.97471C2.98771 13.7657 6.93871 17.8747 10.2527 20.6507C11.0184 21.295 11.987 21.6483 12.9877 21.6483C13.9884 21.6483 14.957 21.295 15.7227 20.6507C16.3307 20.1407 16.9607 19.5857 17.5837 18.9967L20.5737 21.9877H17.9877C17.7225 21.9877 17.4681 22.0931 17.2806 22.2806C17.0931 22.4681 16.9877 22.7225 16.9877 22.9877C16.9877 23.2529 17.0931 23.5073 17.2806 23.6948C17.4681 23.8824 17.7225 23.9877 17.9877 23.9877H21.9877C22.5181 23.9877 23.0269 23.777 23.4019 23.4019C23.777 23.0269 23.9877 22.5181 23.9877 21.9877V17.9877C23.9877 17.7225 23.8824 17.4681 23.6948 17.2806C23.5073 17.0931 23.2529 16.9877 22.9877 16.9877ZM14.4377 19.1197C14.0269 19.4507 13.5153 19.6312 12.9877 19.6312C12.4602 19.6312 11.9485 19.4507 11.5377 19.1197C7.37471 15.6307 4.98771 12.2977 4.98771 9.97471C4.93291 8.98807 5.26987 8.01969 5.9253 7.28017C6.58073 6.54066 7.50163 6.08982 8.48771 6.02571C9.4738 6.08982 10.3947 6.54066 11.0501 7.28017C11.7056 8.01969 12.0425 8.98807 11.9877 9.97471C11.9877 10.2399 12.0931 10.4943 12.2806 10.6818C12.4681 10.8694 12.7225 10.9747 12.9877 10.9747C13.2529 10.9747 13.5073 10.8694 13.6948 10.6818C13.8824 10.4943 13.9877 10.2399 13.9877 9.97471C13.9329 8.98807 14.2699 8.01969 14.9253 7.28017C15.5807 6.54066 16.5016 6.08982 17.4877 6.02571C18.4738 6.08982 19.3947 6.54066 20.0501 7.28017C20.7056 8.01969 21.0425 8.98807 20.9877 9.97471C20.9877 12.2967 18.5997 15.6297 14.4377 19.1197Z" fill="#06C755"/>
</svg>
