<svg width="36" height="28" viewBox="0 0 36 28" fill="none" xmlns="http://www.w3.org/2000/svg">
<path d="M21.475 7.54265C24.9888 10.4942 24.4734 15.3198 21.9904 17.8966L13.7447 26.2827C13.2762 26.7512 12.6672 27.0323 12.0113 27.0323C11.3085 27.0323 10.6995 26.7512 10.2309 26.2827L2.03216 17.8966C-0.49775 15.3198 -1.0131 10.4942 2.50066 7.54265C5.21798 5.24699 9.38765 5.57495 12.0113 8.24541C14.588 5.57495 18.7577 5.24699 21.475 7.54265ZM20.3506 16.3036C22.0841 14.5702 22.412 11.2907 20.0226 9.22926C18.1955 7.73005 15.3845 7.96431 13.651 9.74461L12.0113 11.4312L10.3715 9.74461C8.59119 7.96431 5.78018 7.73005 3.95302 9.27611C1.56366 11.2907 1.89161 14.5702 3.62507 16.3036L11.8239 24.6898C11.9644 24.7835 12.0581 24.7835 12.1518 24.6898L20.3506 16.3036Z" fill="#06C755"/>
<path d="M35.5017 4.99736C35.7516 4.99736 36.0015 5.24722 36.0015 5.49709V6.49656C36.0015 6.77766 35.7516 6.9963 35.5017 6.9963H31.0041V11.4939C31.0041 11.775 30.7542 11.9937 30.5044 11.9937H29.5049C29.2238 11.9937 29.0052 11.775 29.0052 11.4939V6.9963H24.5075C24.2264 6.9963 24.0078 6.77766 24.0078 6.49656V5.49709C24.0078 5.24722 24.2264 4.99736 24.5075 4.99736H29.0052V0.499736C29.0052 0.249868 29.2238 0 29.5049 0H30.5044C30.7542 0 31.0041 0.249868 31.0041 0.499736V4.99736H35.5017Z" fill="#06C755"/>
</svg>
