<svg width="24" height="24" viewBox="0 0 24 24" fill="none" xmlns="http://www.w3.org/2000/svg">
<path d="M12 0.9375L11.3906 1.82812C11.3906 1.82812 10.9863 2.39355 10.5938 3.07031C10.3975 3.41016 10.2129 3.76465 10.0547 4.125C9.89648 4.48535 9.75 4.81641 9.75 5.25C9.75 6.4834 10.7666 7.5 12 7.5C13.2334 7.5 14.25 6.4834 14.25 5.25C14.25 4.81641 14.1035 4.48535 13.9453 4.125C13.7871 3.76465 13.6025 3.41016 13.4062 3.07031C13.0137 2.39355 12.6094 1.82812 12.6094 1.82812L12 0.9375ZM12 7.5H9.75V10.5H5.25C3.5918 10.5 2.25 11.8418 2.25 13.5C2.25 14.2617 2.53125 14.9619 3 15.4922V21H21V15.4922C21.4688 14.9619 21.75 14.2617 21.75 13.5C21.75 11.8418 20.4082 10.5 18.75 10.5H14.25V7.5H12ZM12 3.65625C12.0498 3.73828 12.0439 3.73242 12.0938 3.82031C12.2725 4.12793 12.4629 4.45605 12.5859 4.73438C12.709 5.0127 12.75 5.27051 12.75 5.25C12.75 5.66602 12.416 6 12 6C11.584 6 11.25 5.66602 11.25 5.25C11.25 5.27051 11.291 5.0127 11.4141 4.73438C11.5371 4.45605 11.7275 4.12793 11.9062 3.82031C11.9561 3.73242 11.9502 3.73828 12 3.65625ZM11.25 9H12.75V10.5H11.25V9ZM5.25 12H18.75C19.6436 12 20.25 12.6064 20.25 13.5C20.25 14.3936 19.6436 15 18.75 15C17.8564 15 17.25 14.3936 17.25 13.5H15.75C15.75 14.3936 15.1436 15 14.25 15C13.3564 15 12.75 14.3936 12.75 13.5H11.25C11.25 14.3936 10.6436 15 9.75 15C8.85645 15 8.25 14.3936 8.25 13.5H6.75C6.75 14.3936 6.14355 15 5.25 15C4.35645 15 3.75 14.3936 3.75 13.5C3.75 12.6064 4.35645 12 5.25 12ZM7.5 15.4922C8.05078 16.1133 8.85352 16.5 9.75 16.5C10.6465 16.5 11.4492 16.1133 12 15.4922C12.5508 16.1133 13.3535 16.5 14.25 16.5C15.1465 16.5 15.9492 16.1133 16.5 15.4922C17.0508 16.1133 17.8535 16.5 18.75 16.5C19.0107 16.5 19.2598 16.4443 19.5 16.3828V19.5H4.5V16.3828C4.74023 16.4443 4.98926 16.5 5.25 16.5C6.14648 16.5 6.94922 16.1133 7.5 15.4922Z" fill="#06C755"/>
</svg>
