<svg width="49" height="48" viewBox="0 0 49 48" fill="none" xmlns="http://www.w3.org/2000/svg">
<path d="M19.9995 3C17.5327 3 15.4995 5.0332 15.4995 7.5V25.2188L14.5151 24.1875L14.1401 23.8594C12.4116 22.1309 9.5874 22.1309 7.85889 23.8594C6.13037 25.5879 6.13037 28.4121 7.85889 30.1406V30.1875L20.1401 42.3281L20.2339 42.375L20.2808 42.4688C22.3022 43.9863 24.8804 45 27.7808 45H30.3589C37.1616 45 42.6401 39.5215 42.6401 32.7188V21C42.6401 18.5332 40.6069 16.5 38.1401 16.5C37.5015 16.5 36.9097 16.6758 36.3589 16.9219C35.8667 14.9707 34.0913 13.5 31.9995 13.5C30.8511 13.5 29.7964 13.9512 28.9995 14.6719C28.2026 13.9512 27.1479 13.5 25.9995 13.5C25.4722 13.5 24.9741 13.6113 24.4995 13.7812V7.5C24.4995 5.0332 22.4663 3 19.9995 3ZM19.9995 6C20.8315 6 21.4995 6.66797 21.4995 7.5V24H24.4995V18C24.4995 17.168 25.1675 16.5 25.9995 16.5C26.8315 16.5 27.4995 17.168 27.4995 18V24H30.4995V18C30.4995 17.168 31.1675 16.5 31.9995 16.5C32.8315 16.5 33.4995 17.168 33.4995 18V24H36.6401V21C36.6401 20.168 37.3081 19.5 38.1401 19.5C38.9722 19.5 39.6401 20.168 39.6401 21V32.7188C39.6401 37.916 35.5562 42 30.3589 42H27.7808C25.5835 42 23.6851 41.2148 22.1089 40.0312L9.96826 28.0312C9.30029 27.3633 9.30029 26.6367 9.96826 25.9688C10.6362 25.3008 11.3628 25.3008 12.0308 25.9688L18.4995 32.4375V7.5C18.4995 6.66797 19.1675 6 19.9995 6Z" fill="#B7B7B7"/>
</svg>
