<svg width="32" height="32" viewBox="0 0 32 32" fill="none" xmlns="http://www.w3.org/2000/svg">
<rect x="0.5" y="0.5" width="31" height="31" rx="3.5" stroke="#DFDFDF"/>
<path d="M12.0625 9.25V11.0693L10.1025 9.8927L9.52246 10.8573L10.5936 11.5H8.6875V22.1875H12.0625V21.0625H9.8125V12.625H14.3279C14.7964 12.2762 15.3723 12.0625 16 12.0625C16.198 12.0625 16.3836 12.0859 16.5625 12.1196V11.5H14.6564L15.7275 10.8573L15.1475 9.8927L13.1875 11.0693V9.25H12.0625ZM16 13.1875C15.0747 13.1875 14.3125 13.9497 14.3125 14.875C14.3125 15.073 14.3544 15.2597 14.418 15.4375H13.1875V16.5625V22.1875H23.3125V16.5625V15.4375H22.082C22.1462 15.2597 22.1875 15.073 22.1875 14.875C22.1875 13.9497 21.4253 13.1875 20.5 13.1875C19.5156 13.1875 18.8475 13.9342 18.4082 14.5586C18.3491 14.6418 18.3023 14.7242 18.25 14.8058C18.1971 14.7242 18.1509 14.6424 18.0918 14.5586C17.6519 13.9342 16.9844 13.1875 16 13.1875ZM16 14.3125C16.3516 14.3125 16.8086 14.6902 17.1602 15.1914C17.2457 15.3146 17.2327 15.3216 17.3008 15.4386H16C15.6816 15.4386 15.4375 15.1945 15.4375 14.8761C15.4375 14.5577 15.6816 14.3125 16 14.3125ZM20.5 14.3125C20.8184 14.3125 21.0625 14.5566 21.0625 14.875C21.0625 15.1934 20.8184 15.4375 20.5 15.4375H19.1992C19.2678 15.3211 19.2543 15.314 19.3398 15.1914C19.6914 14.6902 20.1484 14.3125 20.5 14.3125ZM14.3125 16.5625H17.6875V21.0625H14.3125V16.5625ZM18.8125 16.5625H22.1875V21.0625H18.8125V16.5625Z" fill="#06C755"/>
</svg>
